<svg xmlns="http://www.w3.org/2000/svg" xmlns:xlink="http://www.w3.org/1999/xlink" width="1025px" height="394px" viewBox="0 0 1025.0221617351672 394.14401810962465">
    <g id="ec0bd76c-cc90-4350-a737-8daee4048387"><path style="fill: rgb(0,15,18); fill-opacity: 1.00;  stroke: none;  stroke-linecap: butt; stroke-linejoin: miter; stroke-miterlimit: 10; stroke-width: 0;  stroke-dashoffset: 0;  fill-rule: nonzero;" d="M 2.7284841053187847e-12 378.2333994603032 L 2.7284841053187847e-12 361.539309400589 L 2.6893486755843696 356.56910579821215 C 6.2570368176020565 349.98743363258745 7.823559783512792 342.6905591270938 9.145596506189577 326.5487139120878 C 9.978660742396642 316.40913643547174 9.987715788442074 312.8964970953589 9.19992678246399 312.1088692020862 C 7.624348770506913 310.53361341554 7.923165290016186 309.9089430174272 10.186926801448863 309.99042176500734 C 12.966825937487556 310.0900069009381 13.67311952905493 306.0794418811697 11.001880945564153 305.3823459296518 C 8.086156118839426 304.6218776189062 8.004660704427806 302.5577493468804 10.757394702329293 299.470610133018 L 13.319972733271243 296.60980077354407 L 14.8140553308167 299.0360568125916 C 15.6290094749329 300.36687635639737 16.951046197608775 302.5215365701788 17.73883520358777 303.82519653145755 C 20.26519305034617 307.95345307550815 21.03487196423339 305.1016969102102 19.45023890623088 297.46080102604583 C 17.82033061799939 289.5664157049664 18.445128795154233 287.674298122276 22.53800960782428 288.0907450543518 C 24.475789461610475 288.28991532621376 24.892321579714007 287.96400033589407 24.82893625739416 286.29821260759263 C 24.684055520662696 282.28764758782427 27.690330807844475 284.8587547336806 28.632055596600367 289.5573625107909 C 29.320239096075966 293.0156826858506 29.854486812774667 293.0700018509042 33.431230000837786 290.06434138462146 C 36.808762175895026 287.221638413499 36.881202544261214 286.3977977435243 33.956422671490145 284.09828642293405 C 31.33045931822835 282.0341581509092 31.04069784476542 280.6399662478743 33.23201898783191 280.6399662478743 C 34.074138270084404 280.6399662478743 35.89420252527634 279.5626361409836 37.27056952422754 278.24086979135336 C 39.64299158820813 275.96851805329015 42.87564302653391 273.49699604336547 53.08973496611725 266.15485556699423 C 55.516487306373165 264.41664228528816 59.61842316508864 260.9492689160529 62.19911128812146 258.4596405177763 C 77.1308822175306 244.08316816700335 89.50913016204322 234.88512288464426 102.70233225067204 228.36682307824867 C 105.14719468301973 227.1627482529002 109.44834155474109 224.5463751361658 112.25540582891699 222.57277880589618 C 118.53960778465353 218.13671365987648 123.35689228098272 216.8602132811243 126.87025014672508 218.6799053104096 C 129.71353460508453 220.1465227668491 131.90485574815102 219.63954389301853 132.62925943181017 217.3400325724283 C 132.90996585922767 216.47997912575102 133.93318606239427 214.91377653338077 134.9111310353337 213.86360600901708 C 136.3327732645139 212.33361619334937 137.37410355977227 212.05296717390684 139.9819568209423 212.47846730015817 C 142.58981008211322 212.90396742640905 144.53664498194485 212.3698289700519 149.40825975454754 209.9345197368284 C 152.82201211378833 208.22346603764936 155.99127822979335 205.9511142995866 156.53458099253749 204.81946502764276 C 157.75701220871088 202.2936238526645 159.3688104048506 202.16687913420674 159.3688104048506 204.5931351732538 C 159.3688104048506 205.58898653256438 159.92116821364016 206.40377400836405 160.60029666706941 206.40377400836405 C 161.27942512049958 206.40377400836405 163.37114075706268 207.61690202788805 165.2364802424836 209.11067906685366 C 168.94904912123275 212.05296717390684 170.2348656597269 211.9533820379761 170.2348656597269 208.73949810565637 C 170.2348656597269 207.58974244536103 170.98643448152234 205.67951847432005 171.91004917818645 204.48449684314755 C 175.07026024814604 200.41055946415008 175.88521439226224 198.24684605619314 174.76238868259134 196.88886692986125 C 173.92932444638427 195.8930155705507 174.4726272091284 195.2592919782619 177.49701258840196 193.72024896841867 C 179.57967317891962 192.66102524987946 181.47217780247774 191.99108888088858 181.70760899966626 192.2264719294526 C 181.94304019685478 192.46185497801707 181.47217780247774 193.9556320169827 180.6481686123161 195.53994099770398 C 179.25369152127405 198.22873966784255 179.26274656731948 198.5365482698112 180.7206089806814 200.1480168330595 C 182.80326957119996 202.44752815364882 184.86782006962585 202.32983662936704 189.96581099337254 199.6138783767019 C 192.3020128731705 198.36453758047583 194.79215053574626 197.35057983281422 195.49844412731363 197.35057983281422 C 196.21379276492644 197.35057983281422 198.55904969076983 196.30946250262605 200.7232056956991 195.04201531804893 C 202.8873617006293 193.7745681334718 206.32827919800638 192.15404637604797 208.36566455829598 191.42979084200397 C 210.40304991858466 190.71458850213594 212.85696739697778 189.12122632723867 213.82585732387088 187.89904511354007 C 214.78569220471854 186.66781070566458 216.14394911157706 185.88018281239192 216.83213261105357 186.14272544348296 C 217.52031611052826 186.405268074574 218.88762806343402 186.19704460853654 219.87462808241798 185.67195934635492 C 221.94823362689112 184.55841646276167 223.99467403322615 179.56105327785826 222.69980244868566 178.7553189962341 C 221.16949966695847 177.81378680197668 221.80335289015875 175.69533936489825 224.07616944763686 174.20156232593263 C 227.38126125432882 172.03784891797613 233.73790357843063 172.21891280148702 237.0429953851226 174.57274328712992 C 240.57446334295764 177.08953126793313 242.82916980834398 177.03521210287954 247.49251852189536 174.32830704439039 C 249.57517911241212 173.12423221904191 253.10664707024716 171.42223171403884 255.35229848958897 170.54407187901006 C 257.5979499089299 169.6659120439822 261.46445457045684 167.61989016030793 263.9545922330326 165.9993684028841 C 266.44472989560745 164.37884664546118 269.4962804130191 162.8035908589154 270.7458767673288 162.4957822569463 C 273.15451901549386 161.91637782971156 279.30289528054436 157.7247489264314 287.02684955755194 151.40561939189774 C 290.2776110879695 148.75303349846172 292.58664782963024 147.55801186728877 294.4972625452792 147.55801186728877 C 296.0185102809619 147.55801186728877 297.73896902965043 146.9061818866494 298.3184919765772 146.10950079920076 C 299.2602167653331 144.82394722627305 299.6676938373912 144.91447916802827 302.1668865460124 147.01482021675565 C 303.8964003407473 148.46333128484366 306.06055634567656 149.368650702399 307.8353453706395 149.368650702399 C 309.5195839351454 149.368650702399 311.9644463674931 150.32828928500703 313.7482904385015 151.68626841133982 C 317.25259325819843 154.3569606931269 317.2978684884274 154.3569606931269 334.6201715739089 148.72587391593515 C 344.34529102702345 145.56630914866764 344.6622176386236 145.3852452651572 346.3736213412667 141.76396759493718 C 348.5468323922423 137.20115773045973 348.5921076224704 137.16494495375719 355.9991352878769 134.91069960404593 C 362.183731737111 133.02763521553106 364.2482822355378 131.28036873964993 368.83013553467663 124.09213256426347 C 370.1974474875815 121.94652554465847 372.0356218348652 120.5794932241497 374.82457601695023 119.65606741824377 C 378.80879627707145 118.33430106861351 379.180053164946 118.37956703949158 385.0386679565336 120.82392946689015 C 386.27920926479874 121.33996153489625 387.07605331682316 120.45274850569194 388.98666803247124 116.42407709757254 C 391.7212919382828 110.648139213572 393.9941084957609 109.55270271832978 403.29364078472554 109.54364952415426 C 410.94515469336693 109.53459632997874 417.50100803047553 104.872201329571 417.7998245499848 99.24111455237835 C 417.8541548262592 98.10041208625898 419.56555852890233 96.41651796960696 422.4450631714444 94.66019829955076 C 424.9442558800656 93.1302084838826 428.27651282489387 90.55910133802627 429.8430357908055 88.93857958060289 C 431.40955875671716 87.31805782317952 433.1300175054057 85.99629147354926 433.6642652221035 85.99629147354926 C 435.2398432340606 85.99629147354926 434.79614597781983 87.97894099799487 432.73159547939304 90.16981398847747 L 430.8300358097904 92.20678267797666 L 434.31622853739646 93.24790000816483 C 436.2358982990909 93.82730443539958 439.24217358627357 94.16227261989525 440.980742427053 93.99026193055988 C 443.769696609138 93.72771929946884 444.4035498323392 93.16642126058468 446.22361408753113 89.35502651267825 C 448.36966000036955 84.86464220160542 452.58025641163385 81.47874757994941 456.0392840011027 81.46969438577389 C 457.09872438845287 81.46969438577389 459.4258712222054 80.8540771818366 461.2187703392601 80.11171525944155 C 463.0026144102685 79.3693533370465 465.71912822398826 78.75373613310876 467.24943100571636 78.75373613310876 C 468.77973378744446 78.75373613310876 471.5415228313923 77.99326782236312 473.38875222472143 77.06984201645673 C 475.23598161804966 76.1464162105508 477.8257247871288 75.13245846288919 479.1387064637602 74.81559666674502 C 480.4516881403906 74.49873487060086 484.0374863745001 72.35312785099495 487.09809193795627 70.05361653040563 C 490.3488534683738 67.60925410300706 495.0212572279697 65.13773209308192 498.2991838965245 64.1147211512448 C 505.38022990428544 61.90574177241024 519.0805145714749 58.83670894689931 521.8332485693772 58.83670894689931 C 523.0737898776415 58.83670894689931 525.3466064351196 57.370091490460254 527.4564321637745 55.21543127667883 C 529.403267063607 53.2237285580577 531.5130927922619 51.5941536064588 532.1469460154631 51.5941536064588 C 532.7807992386643 51.5941536064588 533.9126799943806 52.78917523763175 534.6733038622215 54.255792694070806 C 537.5165883205809 59.76013475280524 542.3157627248174 61.23580540341982 545.2495976436339 57.5149425972686 C 546.2094325244816 56.28370818939402 548.3373683452282 55.03436739316794 549.9582215874134 54.72655879119975 C 552.176707868618 54.310111859123936 553.1727629336483 53.48627118914874 553.9605519396264 51.42214291712389 C 554.9475519586113 48.79671660621398 555.1648730637089 48.69713147028324 558.4337446862173 49.421387004327244 C 560.3171942637291 49.8378339364026 565.3336897730642 50.0641637907911 569.5623962764193 49.93741907233334 C 576.3265156725802 49.729195606295434 577.4765065203874 49.43949339267829 579.0701946244362 47.59264178086596 C 581.4063965042342 44.885736722376805 582.9185891938714 44.45118340194995 586.5858828423916 45.45608795543603 C 590.2441214448672 46.451939314746596 598.2216170111551 45.021534635010084 603.9715712501938 42.32368277069554 C 611.0978924881829 38.99210731409357 611.93095672439 38.693351906299995 612.7911860987351 39.22749036265759 C 613.2529934470667 39.50813938209967 613.6333053809876 39.15506480925296 613.6333053809876 38.43080927520896 C 613.6333053809876 37.70655374116541 613.2892136312503 37.109042925578706 612.8726815131458 37.109042925578706 C 612.4652044410886 37.109042925578706 612.1211126913504 36.095085177917554 612.1211126913504 34.84574438169193 C 612.1211126913504 31.88534988628635 614.3305439265087 31.88534988628635 619.5009752186206 34.83669118751641 C 624.5084156819094 37.69750054698943 626.3647001212839 37.67939415863884 629.4343607307865 34.73710605158476 C 632.1961497747343 32.093573352324256 635.6551773642022 31.70428600277546 660.1128567337191 31.31499865322712 C 666.831700899651 31.20636032312086 677.6343708322074 30.418732429847296 684.1087287549035 29.558678983170466 C 699.1219950987243 27.557923070373818 706.2935915669423 28.155433885960065 710.8030044977168 31.767658362004568 C 712.5596834305879 33.17090345921497 716.8427202102184 35.624319080789064 720.3289129378245 37.217681255685875 C 725.9792616703598 39.806894789892795 727.5186194981334 40.114703391861894 734.4819499073001 40.05133103263279 C 739.3445096338573 39.99701186757966 745.8460326946906 39.136958420902374 751.6865373941873 37.76087290621854 C 760.4880421506359 35.687691440017716 762.1451155770055 35.58810630408652 777.982391110987 36.104138372093075 C 793.6747859082361 36.62017044009963 795.0420978611428 36.801234323610515 796.9979878070199 38.62092635289582 C 798.464905266429 39.978905479228615 799.8322172193339 40.44061838218158 801.4802355996553 40.123756586037416 C 802.7841622302412 39.870267149121446 805.1113090639947 40.304820469548304 806.6416118457228 41.10150155699648 C 810.4628412770207 43.075097887266566 812.3372358084862 42.92119358628179 817.3990065480493 40.205235333616656 C 820.6859882626495 38.439862469384934 822.6056580243448 37.98720276060749 825.2768966078338 38.33122413927822 C 830.4654379920385 39.001160508269095 860.0301633313456 33.27954178932123 864.9832735183618 30.645062284236246 C 866.042713905711 30.08376424535254 866.5679065763643 30.12903021623015 866.5679065763643 30.789913391045047 C 866.5679065763643 31.333105041578165 868.5871818445621 32.67297777955946 871.0682644610906 33.768414274801216 C 874.4367415901024 35.25313811959131 876.2477507992489 36.83744710031215 878.3123012976748 40.07849061515935 C 879.8154389412657 42.46853387750434 881.0559802495309 44.59603450875875 881.0559802495309 44.81331116897218 C 881.0559802495309 45.03058782918515 880.0780352765933 45.85442849916035 878.8827691985562 46.642056392433005 C 876.854438884312 47.972875936239234 876.3292462136606 47.918556771186104 871.4123562108298 45.85442849916035 C 868.4966313841041 44.64130047963636 863.2265945854897 43.36480010088417 859.6951266276546 43.020778722213436 L 853.2750989812312 42.38705512992419 L 847.0180621636327 49.149791179060685 C 841.3043281087766 55.31501641261002 840.5074840567531 55.867261257318205 837.8815207034904 55.46892071359434 C 835.581539007876 55.11584614074809 834.5764288967994 55.514186684472406 832.9012453783389 57.41535746133786 C 831.7421994844854 58.72807061679214 829.3697774205039 61.21769901506923 827.6312085797244 62.95591229677393 C 825.892639738945 64.68507238430448 824.0544653916613 66.55003038446785 823.5564378591453 67.10227522917603 C 818.9293093297774 72.20827674418615 816.0407496411908 74.37199015214264 811.6762174471487 76.001565103742 C 803.1282539799786 79.19734264771068 802.7479420460577 79.09775751177995 802.6030613093271 73.42140476371014 C 802.5215658949155 70.52438262753412 801.6613365205712 66.81257301555888 800.4660704425341 64.26862545222866 C 798.6912814175712 60.48439028684925 797.7042813985872 59.60623045182092 791.9905473437311 56.80879345157564 C 782.4374737654862 52.13734525699192 777.2308222891916 51.11433431515479 772.0060607208052 52.888760373562945 C 769.4344276438178 53.7578670144153 764.7076936079466 54.310111859123936 759.8179687432521 54.310111859123936 C 752.6644823671259 54.310111859123936 751.251895183992 54.59981407274199 746.4255556416183 57.08944247101772 L 741.0378032444087 59.87782627708748 L 733.3953443818118 58.845762141074374 C 728.949316773359 58.23919813131306 723.7969955733388 56.8540594224537 721.0623716675282 55.53229307282345 C 718.382078037992 54.228633111543786 715.6293440400905 53.47721799497367 714.6604541131974 53.785026596942316 C 712.0797659901646 54.608867266917514 708.602628308603 58.682804645914985 705.4424172386434 64.58548724837374 C 703.8758942727327 67.49156257872528 701.9743346031291 70.82313803532725 701.2137107352883 71.98194688979765 C 699.9369492428405 73.93743683171624 699.9731694270231 74.17281988028026 701.702683221758 75.0962456861871 C 704.084160331784 76.37274606493929 704.1203805159676 77.84841671555432 701.7660685440778 77.84841671555432 C 700.7700134790475 77.84841671555432 698.352316184837 76.24600134648153 696.39642623896 74.29051140456295 C 693.6165271029213 71.51118079266917 691.8870133081864 70.59680818093875 688.4732609489456 70.09888250128324 C 686.0736737468278 69.74580792843653 682.614646157358 68.71374379242388 680.794581902167 67.79937118069347 C 677.1091781615551 65.9344131805301 674.3292790255155 65.48175347175265 662.1864622781923 64.73033835518163 L 653.8467648700744 64.20525309300001 L 650.2066363596914 67.49156257872528 L 646.575562895353 70.77787206444964 L 647.136975750188 76.11925662802378 C 647.5806730064287 80.40141747305915 647.4357922696981 81.46969438577389 646.4125720665297 81.46969438577389 C 645.7062784749633 81.46969438577389 642.7452784180095 82.63755643441982 639.8295535912839 84.06796111415679 C 635.3291957065567 86.27694049299089 634.0433791680625 86.53948312408193 631.2544249859784 85.82428078421344 C 623.5214156629245 83.86879084229486 620.4970302836509 83.87784403647038 617.9525623448008 85.87859994926657 C 615.8970668924203 87.4991217066904 614.765186136703 87.70734517272831 610.6994704621711 87.22752588142384 C 606.1538373472149 86.69338742506625 605.8459657816593 86.78391936682192 605.3932134793731 88.82088805632065 C 600.2590023714447 111.8884268156221 600.5034886146786 111.48103307772226 591.1586810954859 112.4678312428573 C 568.3761852444286 114.88503408772931 567.7513870672728 114.74923617509603 567.7513870672728 107.3256169511451 C 567.7513870672728 103.903509552787 566.9726531073402 100.71678520299338 565.1163686679665 96.5794754647668 C 562.4813502686584 90.71300563901059 562.472295222613 90.69489925066 563.8758273597014 85.14529122104705 C 564.6455062735877 82.09436478388716 565.0529833456458 79.37840653122203 564.79038701032 79.10681070595547 C 563.8577172676096 78.18338490004953 560.3443594018663 81.94951367707836 558.1530382587998 86.23167452211328 C 556.179038220831 90.07022885254673 556.0794327143276 90.74921841571313 557.2113134700439 92.56891044499844 C 557.9176070616113 93.68245332859078 558.7506712978184 98.05514611538138 559.0675979094185 102.29204098953915 C 559.5837355340254 109.07288342702577 559.9187722377173 110.18642631061903 561.8927722756862 111.64399057288256 C 563.1242585379059 112.55836318461297 564.1293686489817 113.88012953424322 564.1293686489817 114.58627867993573 C 564.1293686489817 116.21585363153463 563.7309466229699 116.19774724318404 559.9640474679463 114.41426799060082 C 557.3561942067754 113.17398038854981 556.8853318123975 112.47688443703282 556.8853318123975 109.88767090282545 C 556.8853318123975 105.63266964031709 554.6759005772392 105.8861590772326 552.3759188816239 110.39464977665602 C 550.9542766524437 113.1920867769013 549.903891311139 114.08835300028113 547.6039096155246 114.46858715565395 C 537.8606800703192 116.10721530142837 532.9709552056247 116.65946014613701 532.2193863838284 116.18869404900852 C 531.7304138973595 115.88993864121494 531.6217533448107 113.91634231094531 531.9567900485026 111.68020334958419 C 532.4457625349723 108.43010664056192 532.192221245692 107.19887223268734 530.5623129574606 104.91746730044815 C 527.7280835451465 100.93406186320681 526.8316339866196 102.95292416435404 527.5198174860952 111.79789487386643 L 528.0902853869766 119.04950340848154 L 521.4348265433646 122.5168767777177 C 517.7765879408898 124.42710074875868 514.1092942923688 126.42785666155532 513.285285102208 126.98010150626396 C 512.1534043464908 127.73151662283453 511.2569547879639 127.6138250985523 509.572716223458 126.50933540913547 C 507.3632849883006 125.06987753522253 506.17707395630987 120.67907836008135 506.17707395630987 113.997821058525 C 506.17707395630987 111.28186280586033 503.8680372146482 108.27620233957805 502.44639498546894 109.15436217460592 C 501.96647754504465 109.44406438822352 501.5952206571701 111.38144794179152 501.6133307492619 113.45462940799189 C 501.6676610255363 118.78696077739096 500.73499128282583 123.8205367389969 499.51256006665153 124.73490935072732 C 498.38973435698153 125.57685640905402 487.3606882732829 130.356942933744 486.53667908312127 130.356942933744 C 486.2559726557038 130.356942933744 486.27408274779464 129.15286810839598 486.5638442212585 127.6771974577814 C 486.86266074076775 126.18342041881579 486.68155981985274 124.73490935072732 486.1563671492004 124.40899436040763 C 485.631174478548 124.08307937008749 485.4410185115876 122.87900454473993 485.7307799850514 121.72019569026907 C 486.12920201106317 120.13588670954823 485.81227539946303 119.47500353473288 484.44496344655727 119.04045021430693 C 483.44890838152696 118.72358841816185 482.60678909927447 117.98122649576726 482.57962396113726 117.39276887435653 C 482.5434037769537 116.80431125294535 482.1540367969874 117.23886457337221 481.7012844947012 118.36146065114053 C 480.5241285087568 121.29469556401864 477.5359633136659 120.9506741853479 475.84266970311364 117.68247108797368 C 475.0729907892264 116.18869404900852 474.0407155400135 114.966512835309 473.55174305354467 114.966512835309 C 472.3564769755076 114.966512835309 472.4379723899201 119.17624812694021 473.69662379027613 121.52102541840713 C 474.5296880264832 123.06912162242634 474.41197242788894 123.63947285548602 473.0808806591667 124.61721782644508 C 471.58679806162036 125.7126543216873 471.68640356812375 125.8575054284961 474.36669719765996 126.39164388485278 C 476.4946330184066 126.81714401110412 477.59934863598573 127.74056981701005 478.46863305637544 129.79564489485983 C 479.12965141771383 131.3527942930541 480.54223860084767 133.39881617672836 481.6016789881978 134.3403483709858 C 482.6701744215943 135.29093375941875 483.5394588419849 136.40447664301155 483.5394588419849 136.8118703809114 C 483.5394588419849 138.0159452062594 478.4052477340556 140.31545652684918 475.66156878219954 140.34261610937529 C 472.12104577831906 140.3878820802538 469.9206695892062 142.25284008041626 470.5545228124083 144.68814931363977 C 471.30609163420286 147.54895867311325 468.3360365312037 147.2773628478467 467.2313209136255 144.37128751749515 C 466.76045851924664 143.12194672126952 464.7140181129116 139.8537436238962 462.6947428447138 137.11967898288003 C 459.51642168266335 132.8194117494936 458.7739079069124 132.26716690478543 457.2617152172761 133.08195438058465 C 452.73419219441075 135.50821041963218 452.59836650372563 140.37882888607783 456.8723482373098 146.59837328468075 L 460.0959446295892 151.27887467344 L 456.854238145218 157.07291894579203 C 455.0703940742096 160.25964329558565 453.21410963483504 163.11139946088406 452.73419219441075 163.4192080628527 C 452.24521970794194 163.71796347064583 451.8467976819293 164.66854885907833 451.8467976819293 165.53765549993113 C 451.8467976819293 167.54746460690376 446.37754987030894 172.9069555588294 444.3220544179276 172.9069555588294 C 442.22128373531905 172.9069555588294 439.1425680797702 171.07821033536766 437.09612767343515 168.60668832544297 C 436.17251297677103 167.48409224767465 434.97724689873485 166.56971963594424 434.4520542280825 166.56971963594424 C 433.9178065113847 166.56971963594424 433.0304119989032 165.96315562618247 432.47805419011365 165.21174050961145 C 431.70837527622643 164.17062317942327 430.56743947446375 164.01671887843895 427.5430540951902 164.53275094644505 C 422.7982099672272 165.35659161642025 422.2820723426212 166.71457074275258 426.2662926027424 167.8914859855745 C 427.88714584492755 168.36225208270253 429.20918256760433 169.20419914102922 429.20918256760433 169.74739079156188 C 429.20918256760433 171.25022102470348 421.3675126920025 173.59499831617086 414.52189788143096 174.15629635505502 L 408.44596198474574 174.64516884053455 L 408.9439895172609 172.13743405390687 C 409.28808126699823 170.39922077220172 408.96209960935266 169.2404119177313 407.85738399177353 168.3260393060009 C 406.6440078216456 167.32113475251435 406.1912555193594 167.28492197581272 405.8924389998492 168.15402861666553 C 405.6841729407979 168.77869901477834 404.5341820929907 169.28567788860892 403.3298609689082 169.28567788860892 C 400.6857875235546 169.28567788860892 400.26020035940564 172.5176682092806 402.65978756152435 174.27398787933726 C 404.09048483674997 175.32415840370095 404.09048483674997 175.65007339402064 402.63262242338715 179.4705213361026 C 400.4775214645033 185.1016081132948 398.3405305977112 186.81266181247383 393.70434702229704 186.63159792896295 C 388.49769554600243 186.43242765710056 387.655576263749 185.3098315793327 390.16382401841656 181.91488376350117 C 392.91655801631805 178.1940209573504 393.47797087115396 174.01144524824622 391.76656716851085 169.9194014808977 C 390.2543744788736 166.3071770048532 387.76423681629785 165.49238952905353 385.7268514560092 167.94580515062762 C 384.80323675934505 169.06840122839594 384.8666220816649 169.62969926727965 386.1162184359755 171.00578478196348 C 387.68274140188714 172.73494486949357 387.40203497446964 176.61876517080464 385.5276404430033 178.9997552389741 C 385.047723002579 179.60631924873587 384.80323675934505 181.9510965402037 384.9752826342137 184.20534188991542 C 385.3012642918602 188.25211968638587 385.2740991537221 188.29738565726393 382.47608992559253 188.29738565726393 C 380.9186220057263 188.29738565726393 377.15172285070275 189.09406674471256 374.100172333292 190.0627585214961 C 368.57659424539634 191.82813138572828 360.0739060084561 191.7919186090262 358.96013534483154 189.99033296809193 C 358.6975390095049 189.57388603601612 358.90580506855713 187.70892803585366 359.42194269316315 185.84397003568984 C 360.454217942377 182.10500084118803 359.4038326010723 179.8688618798269 357.5022729314687 181.77003265669282 C 356.6782637413071 182.59387332666756 356.05346556415134 182.5033413849119 354.7948141637953 181.36263891879298 C 353.2554563360218 179.95939382158258 353.11963064533484 180.04087256916273 352.5763278825916 182.75683082182786 C 352.2594012709915 184.35019299672467 351.7885388766126 185.42752310361448 351.5259425412869 185.16498047252344 C 351.26334620596117 184.90243784143286 350.49366729207395 185.1468740841724 349.8235938846901 185.70817212305656 C 349.1535204773054 186.26947016194072 347.27912594583995 187.38301304553352 345.66732774970023 188.18874732715722 C 343.5756121131353 189.23891785152136 342.73349283088373 190.28003518170954 342.73349283088373 191.8371845799038 C 342.73349283088373 193.39433397809898 342.08152951558986 194.20912145389775 340.46973131945015 194.67083435685117 C 339.22013496513955 195.02390892969788 336.3768505067801 195.83869640549756 334.1311990874401 196.47241999778544 C 331.8855476680983 197.10614359007468 327.94660263820606 198.5818142406888 325.3568594691269 199.74967628933518 C 319.6974556905461 202.31173024101554 319.9691070719173 202.30267704684002 319.3805290789451 200.07559127965487 C 318.9277767766589 198.34643119212478 318.76478594783566 198.33737799794926 315.4325290030065 199.71346351263264 C 310.00855642161514 201.9496024739933 308.78612520544084 203.3528475712037 310.0176114676606 205.9511142995866 L 311.0408316708281 208.13293409589414 L 312.6979050971968 204.9009437752229 C 314.4636390761143 201.47883637686482 315.514024417419 201.68705984290227 316.49196939035755 205.65235889179303 C 317.1892079358786 208.4860086687404 314.8982812863096 210.3690730572548 309.65540962583145 211.28344566898568 C 307.89873069295936 211.59125427095387 305.7617398261673 212.65953118366906 304.91056549786845 213.64632934880365 C 303.036170966403 215.83720233928716 301.26138194144005 215.95489386356894 299.640528699254 214.00845711582633 C 298.6263635421319 212.78627590212682 298.68974886445176 212.11633953313594 300.0208406331749 209.78966863002006 C 301.1527213888912 207.82512549392504 301.3338223098053 206.74779538703524 300.6365837642843 206.05069943551734 C 299.9484002648087 205.36265667817588 296.97834516180956 207.81607229974998 290.32288631819756 214.56975515471004 C 285.18867521026914 219.78439499982687 279.8280879511967 224.67311985462356 278.40644572201654 225.41548177701907 C 276.9848034928373 226.15784369941412 273.23601442990457 229.33551485503222 270.0848584059913 232.4679200397727 C 263.6195555293398 238.87758151606204 262.3790142210746 239.50225191417485 253.25152780697954 240.90549701138525 C 249.6747846189155 241.4577418560939 246.04371115457798 242.28158252606863 245.1834817802337 242.73424223484608 C 243.64412395245927 243.54902971064575 241.67917896053677 248.75461636158707 242.41263769024044 250.08543590539284 C 242.94688540693824 251.0631808763519 246.9944909893802 250.9183297695431 247.6283442125805 249.89531882770643 C 248.4432983566967 248.59165886642722 250.5893442695342 249.75046772089763 251.11453694018655 251.7874364103959 C 251.39524336760405 252.86476651728663 251.06926170995757 253.78819232319256 250.3086378421167 254.08694773098568 C 249.60234425055023 254.34949036207672 248.40707817251314 256.65805487684247 247.6555093507177 259.2020024401718 C 245.4641882076512 266.5713024990696 242.41263769024044 270.5003887712578 238.3921972459366 271.12505916937107 C 236.51780271447024 271.4238145771642 233.96427972957463 271.82215512088806 232.71468337526312 272.0122721985749 C 231.46508702095252 272.21144247043685 229.76273836435576 272.6278894025122 228.9296741281487 272.9538043928319 C 227.82495851056956 273.37930451908323 227.00094932040793 272.77274050932147 225.95961902514864 270.7538782081733 C 225.17183001917056 269.22388839250516 224.1395547699567 267.96549440210356 223.68680246767053 267.96549440210356 C 222.47342629754257 267.96549440210356 224.61041716433556 273.64184715017427 226.31276582093233 274.954560305629 C 227.54425208315206 275.90514569406105 227.4265364845569 276.0590499950458 225.47064653867983 276.06810318922135 C 224.22105018436923 276.07715638339687 222.69074740264023 275.7602945872527 222.05689417943995 275.35290084935286 C 220.5175363516655 274.37515587839334 219.02345375411915 269.0428245089943 220.10100423356198 268.3819413341794 C 220.57186662793993 268.08318592638625 220.3092702926133 266.6527812466493 219.50337119454343 265.08657865427904 C 218.18133447186665 262.54263109094927 218.19038951791208 261.98133305206557 219.60297670104683 258.2966830226169 C 221.4864262785586 253.36269219694168 220.80729782512844 252.43021319685977 217.53842620262003 255.46303324566952 C 216.17111424971517 256.7304804302462 213.9345178764197 258.4868001003033 212.56720592351485 259.3559067411561 C 210.4936003790417 260.66861989661083 210.0770682609391 261.5739393141657 210.0770682609391 264.73350408143233 L 210.0770682609391 268.5448988293392 L 205.32316908692974 269.38684588766546 C 201.1306827677572 270.1292078100605 200.40627908409897 270.5909207130135 199.22912309815365 273.26161299480054 C 197.90708637547687 276.2853798494348 197.8618111452488 276.30348623778536 192.67326976104596 275.92325208241255 C 188.33590270514105 275.6063902862684 187.36701277824704 275.8055605581303 186.95953570618985 277.091114131058 C 186.6878843248178 277.9692739660868 185.13947145099792 278.89269977199274 183.41901270230937 279.2095615681369 C 181.73477413780347 279.5264233642815 175.93954466853666 281.95267940332906 170.53368217923526 284.6052652967651 C 154.96805802662584 292.246161180929 143.8846816666519 296.4468432783847 143.01539724626218 295.03454498699875 C 142.60792017420408 294.3827150063589 142.49925962165526 293.5045551713306 142.7618559569819 293.0700018509042 C 143.41381927227394 292.0198313265405 140.39848893904582 288.7878410058688 138.76858065081433 288.7878410058688 C 138.05323201320243 288.7878410058688 136.43237877101637 289.6026284816685 135.164672324614 290.59847984097905 C 132.16745208347766 292.95231032662196 129.02535110560893 292.8979911615688 127.31394740296673 290.45362873417025 C 126.13679141702141 288.7697346175182 125.53010333195743 288.61583031653345 122.96752530101548 289.349139044753 C 121.29234178255592 289.8199051418819 119.58093807991281 291.0782991322835 119.08291054739766 292.20994840422736 C 117.9691398837731 294.7176831908546 117.0274150950172 294.7357895792052 114.41956183384627 292.2914271518066 C 112.44556179587744 290.43552234581875 112.22824069077978 290.41741595746817 109.24007549568887 291.83876744302916 C 107.52867179304667 292.6445017246533 105.70860753785473 293.3144380936442 105.20152495929415 293.3144380936442 C 103.57161667106266 293.3144380936442 97.77638720179493 300.82858925935034 94.88782751320741 306.6860058909315 C 92.75989169246077 311.013432706844 89.71739622109544 314.66186995959106 82.03871717431593 322.0764359893665 C 76.51513908642119 327.41782055294107 69.95023070326715 333.0398541359573 67.46009304069139 334.5607907574499 C 64.52625812187489 336.3533232042091 62.37115716299013 338.51703661216516 61.329826867731754 340.6988564084727 C 60.442432355250276 342.56381440863606 58.70386351446996 344.455931991326 57.45426716015936 344.93575128263 C 56.204670805848764 345.40651737975895 54.95507445153817 346.41142193324504 54.665312978074326 347.17189024399113 C 54.375551504611394 347.9233053605617 52.093679901086944 350.16849751609834 49.58543214642032 352.16020023471947 C 46.30750547786556 354.76752015727743 44.18862470316435 355.78147790493904 41.98824851405243 355.78147790493904 C 38.57449615481255 355.78147790493904 38.474890648309156 355.9353822059238 40.06857875235801 358.5970212935349 C 41.08274390947918 360.299021798538 40.83825766624523 360.77884108984244 37.63277136605666 363.34089504152325 C 35.667826374133256 364.9070976338935 30.370624437380684 369.460854304195 25.861211506607106 373.4623661297878 C 19.16953247881247 379.3831551205981 6.655458843613815 389.81243481083175 1.1318807557190667 394.0583828791646 C 0.2354311971912466 394.74642563650605 2.7284841053187847e-12 391.45106295660617 2.7284841053187847e-12 378.2333994603032 Z M 131.68753464305337 301.1726106380215 C 131.06273646589852 299.5339824922471 133.4532686219709 295.1250769287544 134.96546131160812 295.1250769287544 C 137.075287040263 295.1250769287544 136.88513107330255 298.0945246183346 134.6304246079162 300.3487699680459 C 132.5658741094894 302.42195143424715 132.2036722676603 302.5215365701788 131.68753464305337 301.1726106380215 Z M 55.5255423524186 259.27442799357596 C 55.21767078686389 258.4777469061278 55.54365244451037 257.47284235264124 56.23183594398597 257.0473422263908 C 57.508597436433774 256.25066113894263 59.07512040234542 258.59543843040956 58.242056166137445 260.04394949849757 C 57.56292771270819 261.20275835296843 56.11412034539171 260.7953646150686 55.5255423524186 259.27442799357596 Z M 264.2352986604501 245.62221117684612 C 264.88726197574215 245.35966854575554 265.67505098172114 245.3868281282821 265.9738675012295 245.69463673025075 C 266.2726840207388 245.99339213804433 265.738436304041 246.20161560408178 264.78765646923966 246.1654028273797 C 263.7282160818886 246.12013685650209 263.51089497679186 245.91191339046418 264.2352986604501 245.62221117684612 Z M 274.3678951856218 234.6497398360798 C 274.3678951856218 233.7625268068764 280.081629240477 228.13144002968374 280.97807879900483 228.13144002968374 C 282.4178311202759 228.13144002968374 281.46705128547364 231.57165381639288 279.520216385642 233.4094522340297 C 277.46472093326156 235.3377825934217 274.3678951856218 236.0801445158172 274.3678951856218 234.6497398360798 Z M 292.4779872770814 217.72026672780157 C 293.70947353930114 216.23554288301148 296.1000056953735 215.8734151159897 296.1000056953735 217.16802188309293 C 296.1000056953735 218.0009157472432 293.953959782536 219.0782458541339 292.2968863561673 219.0782458541339 C 291.72641845528597 219.0782458541339 291.79885882365215 218.54410739777632 292.4779872770814 217.72026672780157 Z M 331.41468527372035 207.30909342591895 C 331.41468527372035 205.25401834806917 333.68750183119846 204.84662461016933 334.42096056090304 206.76590177538583 C 334.99142846178347 208.25062562017638 334.32135505439965 209.11973226102918 332.6190063978029 209.11973226102918 C 331.9579880364645 209.11973226102918 331.41468527372035 208.3049447852295 331.41468527372035 207.30909342591895 Z M 161.63257191628327 199.16121866792355 C 161.94044348183797 198.66329298826895 162.37508569203237 198.2558992503691 162.59240679713002 198.2558992503691 C 162.80972790222768 198.2558992503691 162.9908288231427 198.66329298826895 162.9908288231427 199.16121866792355 C 162.9908288231427 199.6591443475795 162.55618661294739 200.06653808547935 162.03099394229503 200.06653808547935 C 161.50580127164267 200.06653808547935 161.32470035072765 199.6591443475795 161.63257191628327 199.16121866792355 Z M 346.5275571240436 194.90621740541565 C 344.21852038238285 194.3087065898294 344.9972543423155 191.78286541485068 347.99447458345276 190.13518407490074 C 350.3487865553416 188.84963050197211 350.6294929827591 188.87679008449913 351.84286915288703 190.50636503609803 C 353.61765817785 192.89640829844348 353.48183248716487 193.7293021625942 351.33578657432645 193.7293021625942 C 350.33973150929614 193.7293021625942 349.52477736518085 194.13669590049358 349.52477736518085 194.6346215801491 C 349.52477736518085 195.57615377440652 349.235015891717 195.60331335693263 346.5275571240436 194.90621740541565 Z M 534.9721203817307 119.47500353473288 L 532.8894597912131 117.74584344720279 L 534.8544047831365 117.7096306705007 C 538.8839002734858 117.64625831127205 541.2019920611929 119.61985464154168 538.3677626488798 120.70623794260746 C 537.6433589652215 120.98688696204954 536.1130561834925 120.43464211734135 534.9721203817307 119.47500353473288 Z M 675.5426551956434 92.23394226050277 C 673.8131414009094 90.79448438659074 671.7214257643454 89.61756914376929 670.8793064820929 89.61756914376929 C 669.0682972729464 89.61756914376929 667.8368110107276 86.9649832503328 669.0773523189919 85.7246956482827 C 669.6387651738269 85.16339760939809 671.5493798894768 86.02345105607537 674.4379395780643 88.14189849315426 C 679.2008937981191 91.63643144491652 680.8308020863496 92.0800379595189 682.5512608350382 90.35993106616434 C 683.7918021433034 89.11964346411378 685.041398497614 89.92537774573748 684.144948939087 91.37388881382549 C 683.8099122353951 91.90802727018308 682.4426002824894 92.91293182366917 681.1115085137671 93.60097458101154 C 678.8477470023345 94.76883662965702 678.4493249763227 94.66925149372582 675.5426551956434 92.23394226050277 Z M 847.0542823478145 69.29314821965909 C 845.5692547963163 67.79937118069347 844.8357960666117 66.05210470481234 844.8357960666117 63.9970296269621 L 844.8357960666117 60.91894360727565 L 856.8337320772034 60.31237959751343 C 863.434860644541 59.97741141301822 870.2623653630208 59.47948573336316 872.000934203802 59.207889908096604 C 874.9347691226185 58.75523019931916 874.6993379254282 59.026826024585716 868.8588332259342 62.88348674336976 C 865.3907505904181 65.17394486978446 861.5151908828457 67.30144550103796 860.2565394824896 67.60925410300706 C 858.9978880821336 67.9170627049757 856.9967229060267 68.92196725846179 855.8105118740359 69.8363398701922 C 852.8404567710377 72.13585119078198 849.7074108392144 71.93668091891959 847.0542823478145 69.29314821965909 Z M 723.0454267515433 68.79522254000403 C 722.4025184822958 67.74505201564034 724.0867570468017 65.17394486978446 725.4178488155239 65.17394486978446 C 726.6674451698345 65.17394486978446 726.3505185582344 67.55493493795393 724.9379313751006 68.73185018077538 C 724.0233717244819 69.4832652973455 723.4891240077841 69.51042487987252 723.0454267515433 68.79522254000403 Z M 727.1473626102588 63.60774227741376 C 727.1654727023497 63.22750812204049 728.2158580436544 62.15017801515023 729.4926195361031 61.22675220924384 C 731.1949681926999 59.98646460719374 732.0733076591359 59.80540072368285 732.815821434886 60.547762646078354 C 733.4496746580871 61.18148623836623 733.5040049343606 61.842369413181586 732.9607021716174 62.340295092837096 C 731.7563810475358 63.44478478225392 727.1111424260753 64.44968933574046 727.1473626102588 63.60774227741376 Z M 879.4441820533912 47.837078023605955 C 879.91504444777 46.42477973221958 881.9343197159678 46.18034348948004 882.0067600843331 47.52021622746179 C 882.0339252224703 48.01814190711684 881.3819619071774 48.57038675182548 880.5488976709703 48.74239744116039 C 879.5981178361699 48.932514518847256 879.1906407641118 48.59754633435159 879.4441820533912 47.837078023605955 Z M 890.5637785975478 35.742010605070845 C 888.8795400330428 34.990595488500276 886.344127140238 34.72805285740924 883.9083197539358 35.044914653553406 C 879.5618976519863 35.624319080789064 877.8323838572514 34.311605925334334 879.3083563627051 31.55943489596666 C 879.7701637110376 30.690328255113855 880.1504756449585 28.57188081803497 880.1504756449585 26.8517739246804 C 880.1504756449585 24.099602895313637 880.6756683156118 23.384400555445154 884.4516225166799 20.976250904748667 C 890.4551180449989 17.13769657431567 893.3255676414965 16.540185758728967 894.5661089497598 18.86685666184576 C 895.60743924502 20.8042402154133 895.9243658566202 33.261435400970186 894.9916961139106 35.678638245842194 C 894.3487878446622 37.353479168319154 894.1495768316572 37.353479168319154 890.5637785975478 35.742010605070845 Z M 892.3295125764644 31.74955197365307 C 892.6102190038828 31.296892264875623 890.7629896105545 30.228615352160887 888.2185216717035 29.386668293834646 C 884.0079252604401 27.983423196624244 883.4646224976959 27.974370002448723 882.16069586711 29.278029963728386 C 880.539842624924 30.89855172115176 881.1465307099888 31.31499865322712 886.0362555746824 31.957775439690977 C 891.0436960379711 32.609605420330354 891.8133749518593 32.582445837804244 892.3295125764644 31.74955197365307 Z M 930.6323573499039 33.13469068251243 C 928.5044215291573 31.52322211926503 928.6493022658879 29.404774682186144 931.239045434967 23.8370602642226 C 932.8870638152903 20.306314535758702 934.8520088072137 18.097335156924146 939.2799263235747 14.783866088672767 C 942.5035227158542 12.375716437976735 945.8810548909123 9.324790000816392 946.7775044494401 8.00302365118614 C 947.673954007968 6.69031049573141 949.5936237696615 4.90683124314819 951.0424311369779 4.055830990645973 C 957.1364771257549 0.45265970877699147 961.8179359313972 0.00905319417552164 994.0176796700134 0 C 1011.0773864201683 0 1025.031212376639 0.29875540779266885 1025.0221573305926 0.6699363689904203 C 1025.0040472385017 2.362883679817969 1008.1435515013518 16.268589933463318 993.1846154338064 26.92419947808503 C 988.0141841416944 30.617902701709227 985.1890097754267 31.686179614424418 985.1890097754267 29.96607272106985 C 985.1890097754267 29.522466206467925 983.3236702900058 27.087156973245328 981.0417986864823 24.552262604091084 C 976.0886884994679 19.03886735118158 971.6336058449697 17.28254768112447 966.399789230537 18.78537791426561 C 964.534449745116 19.319516370623205 961.2836882146994 20.025665516316167 959.18291753209 20.36063370081183 C 957.0821468494805 20.695601885307042 954.4290183580824 21.673346856266562 953.2971376023661 22.542453497119368 C 950.100706348222 24.977762730341965 933.9736693407785 34.39308467291403 933.0409995980672 34.365925090387464 C 932.588247295781 34.34781870203642 931.5016417702946 33.79557385732733 930.6323573499039 33.13469068251243 Z"></path></g>
  </svg>